<svg width="16" height="21" viewBox="0 0 16 21" fill="none" xmlns="http://www.w3.org/2000/svg">
<g clip-path="url(#clip0_1482_2429)">
<path d="M8.0031 0C7.83209 0 7.6645 0.0940927 7.44561 0.185804C7.16801 0.304909 6.38309 0.632448 6.40703 0.95284C6.419 1.11542 6.62877 1.12256 7.20506 1.48881C7.79162 1.86161 7.85774 2.03491 8.1171 2.02479C8.33599 2.01645 8.35138 1.8902 8.85813 1.60792C9.38768 1.31016 9.56325 1.34231 9.59916 1.19105C9.67327 0.876613 8.99494 0.426991 8.63012 0.23821C8.37304 0.106599 8.1741 0 8.0031 0Z" fill="url(#paint0_linear_1482_2429)"/>
<path d="M8.06025 2.32251C7.60423 2.38206 7.26222 2.67982 7.03421 2.85848C6.9202 2.97759 6.34391 3.44627 6.40718 3.75177C6.43682 3.89648 6.57819 3.98998 6.8632 4.16864C7.10432 4.32288 7.54723 4.59801 8.11725 4.52595C8.15373 4.52119 8.17824 4.51702 8.22271 4.50868C8.54615 4.45206 8.85767 4.33699 9.1433 4.16864C9.53376 3.93698 9.5862 3.775 9.59931 3.69222C9.59931 3.69222 9.59931 3.67971 9.59931 3.6672C9.61015 3.55346 9.57651 3.28547 8.91529 2.79893C8.48777 2.48807 8.27458 2.33382 8.06025 2.32251Z" fill="url(#paint1_linear_1482_2429)"/>
<path d="M5.98806 1.21899H5.97152C5.71676 1.23103 5.46957 1.31321 5.255 1.4572C4.9546 1.64539 4.34981 2.02355 4.40909 2.4553C4.44614 2.72746 4.73115 2.89718 4.97284 3.04249C5.2153 3.18292 5.48542 3.2632 5.76233 3.27713C5.83811 3.28571 5.91455 3.28571 5.99033 3.27713C6.30328 3.23425 6.37852 3.03892 6.77982 2.7489C7.16173 2.47079 7.41881 2.41124 7.45643 2.16171C7.46271 2.12228 7.46271 2.08204 7.45643 2.04261C7.44161 1.94732 7.38518 1.82345 6.83625 1.51438C6.83397 1.51676 6.3124 1.21899 5.98806 1.21899Z" fill="url(#paint2_linear_1482_2429)"/>
<path d="M9.94114 1.48893C10.2174 1.47627 10.4921 1.53778 10.7392 1.66759C10.9706 1.79129 11.1671 1.97606 11.3092 2.20356C11.3862 2.32981 11.4289 2.40246 11.4232 2.50132C11.4129 2.6639 11.226 2.79075 10.8532 3.03729C10.8532 3.03729 10.3738 3.3684 10.0551 3.33506L10.0084 3.3285C9.93834 3.31134 9.87505 3.27204 9.82714 3.21595C9.59913 2.94796 9.22348 2.71809 9.08611 2.62043C8.74409 2.37686 8.58905 2.39115 8.57308 2.26311C8.55028 2.08445 8.83074 1.90996 9.0291 1.78669C9.30207 1.60382 9.61708 1.50097 9.94114 1.48893Z" fill="url(#paint3_linear_1482_2429)"/>
<path d="M4.52587 3.03717C4.23516 2.81802 4.22148 2.72631 4.06985 2.67986C3.91822 2.63341 3.66 2.65127 3.27182 2.97762C3.27182 2.97762 2.18877 3.7518 2.58779 4.34733C2.61458 4.38306 2.7588 4.58554 2.9298 4.58554C3.72784 4.61531 4.32237 4.22227 4.58287 4.04957C5.03889 3.7518 5.11926 3.56719 5.09589 3.45404C5.06454 3.31588 4.88954 3.31409 4.52587 3.03717Z" fill="url(#paint4_linear_1482_2429)"/>
<path d="M11.5942 2.85845C11.9402 2.67979 12.4492 3.07105 12.5632 3.15621C13.1116 3.57665 13.3396 4.23769 13.2387 4.46637C13.2105 4.52978 13.1683 4.58529 13.1156 4.62835C13.0454 4.68017 12.961 4.70691 12.875 4.70458C12.692 4.70336 12.5095 4.68341 12.3301 4.64503C11.9021 4.56331 11.4916 4.40194 11.1182 4.16861C10.9335 4.05367 10.5112 3.78151 10.5727 3.57308C10.5836 3.5308 10.6166 3.5171 10.8047 3.41288C11.1382 3.24375 11.3662 3.00554 11.5942 2.85845Z" fill="url(#paint5_linear_1482_2429)"/>
<path d="M9.3142 4.40686C8.88156 4.69331 8.52814 4.62244 8.51617 4.76417C8.50306 4.91544 8.91861 5.00238 9.37121 5.30015C9.73689 5.54603 10.0479 5.87094 10.2832 6.25299C10.341 6.33444 10.4202 6.39653 10.5113 6.43164C10.5683 6.45189 10.6418 6.46559 11.2523 6.25299C11.3808 6.20789 11.5063 6.15397 11.6279 6.0916C11.6536 6.0785 11.677 6.06539 11.7015 6.0511C11.8008 5.99531 11.896 5.93202 11.9865 5.86173C12.2464 5.65984 12.5086 5.3597 12.5656 5.24059C12.6226 5.12149 12.6506 5.04109 12.2943 4.90233C11.938 4.76357 11.1383 4.64507 10.3973 3.87089C10.3375 3.80379 10.2565 3.76149 10.1692 3.75178C9.87454 3.72022 9.75141 4.11505 9.3142 4.40686Z" fill="url(#paint6_linear_1482_2429)"/>
<path d="M6.29313 4.10913C6.402 4.18893 6.52798 4.26337 6.77936 4.41106C7.12137 4.61116 7.19148 4.63081 7.20402 4.70466C7.23366 4.88332 6.85289 5.06197 6.40599 5.35974C6.14264 5.53482 5.55096 6.07437 5.37995 6.19347C5.20894 6.31258 4.78997 6.17799 4.64462 6.13392C4.48894 6.08442 4.33904 6.01691 4.19772 5.93263C4.09855 5.8764 4.00331 5.81292 3.91271 5.74266C3.65335 5.54078 3.39227 5.24063 3.33527 5.12153C3.31112 5.0836 3.29988 5.03829 3.30335 4.99289C3.329 4.86426 3.53136 4.8053 3.60546 4.78326C3.66589 4.7654 4.8333 4.40094 5.37767 3.75182C5.44379 3.67261 5.5025 3.58686 5.60568 3.57316C5.8012 3.54636 5.8867 3.81137 6.29313 4.10913Z" fill="url(#paint7_linear_1482_2429)"/>
<path d="M7.88903 4.82386C7.71803 4.79408 7.36233 5.02634 6.86299 5.35983C6.44062 5.64148 6.05706 5.9821 5.72294 6.37222C5.69005 6.42591 5.67046 6.48731 5.66594 6.55088C5.63858 7.00288 6.47195 7.3727 7.034 7.62282C7.24858 7.72664 7.48158 7.78243 7.71803 7.78659C7.84127 7.78686 7.96411 7.77187 8.08398 7.74193C8.31296 7.66266 8.53403 7.56034 8.74407 7.43642C9.71311 6.86174 9.96962 6.81112 9.99812 6.55088C10.0238 6.30493 9.78721 6.0953 9.4281 5.7767C9.18185 5.56112 8.06004 4.85185 7.88903 4.82386Z" fill="url(#paint8_linear_1482_2429)"/>
<path d="M3.04389 5.24056C3.04389 5.24056 2.75888 4.46638 2.13185 4.9428C2.13185 4.9428 0.934804 5.89564 1.84684 7.14624C1.84684 7.14624 2.07485 7.44401 2.41687 7.08669C2.83726 6.65239 3.37394 6.36166 3.95593 6.25296C3.95593 6.25296 4.17881 6.15469 3.81058 6.02487C3.75585 6.00403 3.38591 5.83609 3.04389 5.24056Z" fill="url(#paint9_linear_1482_2429)"/>
<path d="M13.2473 5.18114C13.3487 5.20377 13.424 5.25796 13.5636 5.36813C13.8536 5.62078 14.078 5.94559 14.2163 6.31264C14.3873 6.78906 14.242 7.29227 14.2163 7.38458C14.2 7.45526 14.1615 7.51817 14.1069 7.56324H14.1023C13.9034 7.6883 13.6155 7.36076 13.0193 7.02727C12.4618 6.71521 12.1072 6.7295 11.865 6.53893C11.8222 6.49129 11.784 6.47402 11.7806 6.41447C11.7772 6.35492 11.8684 6.29537 11.9362 6.25308C12.2115 6.07443 12.5393 5.77666 12.6944 5.5587C12.8277 5.37111 12.8654 5.22878 13.0193 5.18114C13.0941 5.1613 13.1725 5.1613 13.2473 5.18114Z" fill="url(#paint10_linear_1482_2429)"/>
<path d="M4.2541 6.45484C4.2541 6.45484 2.98694 6.72938 2.47392 7.44401C2.47392 7.44401 2.30291 7.68222 2.53092 7.86088C2.53092 7.86088 3.38595 8.87327 4.469 9.29014C4.469 9.29014 4.80132 9.43604 5.03389 9.18413C5.04358 9.15793 5.89406 8.39685 6.74909 8.09909C6.74909 8.09909 6.94917 8.02643 6.50683 7.79477C6.0645 7.56311 5.38104 7.2058 4.81101 6.55072C4.81101 6.55072 4.61265 6.35956 4.2541 6.45484Z" fill="url(#paint11_linear_1482_2429)"/>
<path d="M11.0243 6.66985L8.97226 7.80135C8.9147 7.84441 8.87416 7.90794 8.85825 7.98001C8.82975 8.14497 8.80125 8.21822 9.08626 8.39688C9.37127 8.57553 10.5592 9.54445 10.6823 9.63318C10.7359 9.66177 11.066 10.0358 11.6428 9.63318C12.2197 9.23061 13.0194 8.75419 13.6465 7.98001C13.6597 7.96906 13.6689 7.95372 13.6727 7.93653C13.6755 7.92224 13.6789 7.87698 13.5894 7.80135C13.2556 7.53726 12.8918 7.31724 12.5064 7.14627C11.8794 6.87769 11.7654 6.83541 11.5944 6.78896C11.3213 6.71452 11.0876 6.63353 11.0243 6.66985Z" fill="url(#paint12_linear_1482_2429)"/>
<path d="M7.3619 8.13555C7.3619 8.13555 5.89408 8.69475 5.09605 9.52848C5.08408 9.54576 5.07154 9.56481 5.05957 9.58804C5.04654 9.61014 5.03511 9.63323 5.02537 9.65712C5.01358 9.71424 5.01834 9.77374 5.03905 9.82803C5.08237 9.94714 5.68831 10.8511 7.14814 11.5253C7.31563 11.6083 7.49709 11.6563 7.68225 11.6664C7.84756 11.6742 8.00317 11.6503 8.28819 11.5551C9.05606 11.2987 9.77135 10.8947 10.3973 10.364C10.3973 10.364 10.6823 10.1853 10.3973 9.90247C10.1123 9.6196 9.7332 9.23489 9.48524 9.0205C9.15063 8.73703 8.87132 8.56373 8.31155 8.21773C8.19973 8.14446 8.07582 8.09356 7.94617 8.06766C7.7492 8.03167 7.54649 8.05523 7.3619 8.13555Z" fill="url(#paint13_linear_1482_2429)"/>
<path d="M1.92324 7.79475C1.90272 7.77271 1.66901 7.52855 1.43929 7.79475C1.33098 7.95018 -0.104907 8.92267 1.43929 10.446C1.45012 10.4562 1.73 10.8087 2.07201 10.3621C2.07201 10.3621 2.58504 9.6772 3.98615 9.63313C4.1241 9.61765 4.1811 9.49855 3.98615 9.40743C2.9299 8.90123 1.92324 7.79475 1.92324 7.79475Z" fill="url(#paint14_linear_1482_2429)"/>
<path d="M13.9313 8.09914C13.7249 8.31829 13.502 8.5428 13.2615 8.7691C12.8853 9.12284 11.9362 9.70705 11.8792 9.82616C11.8222 9.94526 11.9362 9.99767 12.0502 10.0048C12.1984 10.0203 12.3504 10.0402 12.5062 10.0644C13.1817 10.171 14.3075 10.5491 14.3075 10.5491C14.3075 10.5491 14.6153 10.6003 14.7293 10.4217C14.7293 10.4217 15.8123 9.23063 14.5013 8.09914C14.5013 8.09914 14.2163 7.80137 13.9313 8.09914Z" fill="url(#paint15_linear_1482_2429)"/>
<path d="M4.18403 9.82609C3.63795 9.95889 3.36491 10.0256 3.34724 10.0321C2.81598 10.1518 2.35996 10.3901 2.18895 10.6598C2.13195 10.7492 2.01794 10.9373 2.18895 11.1559C2.33433 11.3985 2.49766 11.6289 2.67746 11.8449C3.08923 12.3377 3.57969 12.7522 4.12703 13.0699C4.24243 13.1188 4.36563 13.1444 4.49014 13.1455C4.67598 13.146 4.85831 13.0926 5.01684 12.9913C5.06073 12.9699 6.69214 11.9086 6.69214 11.9086C6.72077 11.887 6.74099 11.8553 6.74914 11.8193C6.76396 11.7312 6.6739 11.6466 6.63514 11.6109C6.19793 11.2107 5.51846 10.854 5.09607 10.3305C4.93134 10.1262 4.80308 9.89338 4.52605 9.8243C4.41418 9.79104 4.29558 9.79166 4.18403 9.82609Z" fill="url(#paint16_linear_1482_2429)"/>
<path d="M10.9672 10.2431C9.25709 11.7564 8.80108 11.6408 8.74407 11.7498C8.73776 11.7627 8.73614 11.7775 8.73951 11.7915C8.75433 11.857 8.88031 11.8755 8.91052 11.8808C9.18869 11.9309 10.1121 12.4513 10.4496 12.7741C10.5498 12.8733 10.6654 12.9539 10.7916 13.0123C10.8474 13.0367 10.9045 13.0576 10.9626 13.0749C11.3086 13.1731 11.6786 12.9331 11.8176 12.8634C12.7867 12.3775 14.1279 11.1513 14.0556 11.0096C13.9832 10.8678 13.7603 10.4813 11.4802 10.1836C11.1952 10.152 11.1382 10.0925 10.9672 10.2431Z" fill="url(#paint17_linear_1482_2429)"/>
<path d="M7.20517 11.998C6.86066 12.1306 6.53474 12.3108 6.23613 12.534C5.90836 12.7722 5.4951 13.0842 5.03395 13.4868C5.04364 13.4868 4.86807 13.756 5.15308 13.9346C5.15308 13.9346 6.18482 14.7946 7.32202 15.1388C7.51681 15.2151 7.73146 15.2151 7.92625 15.1388C7.96615 15.1126 9.51034 14.6177 10.5238 13.5017C10.5808 13.4141 10.5911 13.3528 10.5769 13.3052C10.5409 13.1861 9.84837 12.6304 9.08625 12.2374C8.83286 12.1045 8.56486 12.0045 8.28821 11.9396C8.10197 11.891 7.90996 11.8709 7.71819 11.8801C7.54263 11.8933 7.36983 11.933 7.20517 11.998Z" fill="url(#paint18_linear_1482_2429)"/>
<path d="M1.61894 11.1364C1.61894 11.1364 1.50493 10.7195 0.99191 11.0768C0.99191 11.0768 -1.02312 12.387 0.700059 14.4511C0.720009 14.4511 0.99191 14.7691 1.21992 14.4118C1.21992 14.4118 2.07496 13.5185 3.32901 13.3994C3.95603 13.3398 3.67102 13.2207 3.67102 13.2207C3.67102 13.2207 2.41697 12.4465 1.61894 11.1364Z" fill="url(#paint19_linear_1482_2429)"/>
<path d="M14.3873 11.1048C14.2329 11.3229 14.0654 11.5306 13.8857 11.7265C13.3322 12.3292 12.3922 12.8914 12.2782 12.9807C12.2782 12.9807 12.0502 13.1593 12.3352 13.2189C12.3352 13.2189 14.1023 13.6655 14.7293 14.8268C14.7863 14.9161 14.8855 14.9459 15.0354 14.8268C15.1101 14.7673 16.1595 13.8603 15.9834 12.6532C15.858 11.795 15.1284 10.8886 14.6153 10.9857C14.5304 11.003 14.4516 11.0442 14.3873 11.1048Z" fill="url(#paint20_linear_1482_2429)"/>
<path d="M4.01291 13.5376C3.83677 13.5483 2.2977 13.7568 1.84168 14.3523C1.84168 14.3523 1.72768 14.5607 1.84168 14.7138C2.11698 15.0723 2.44594 15.382 2.81586 15.6309C2.81586 15.6309 3.55176 16.1293 4.41192 16.2562C4.50412 16.2694 4.59703 16.2766 4.69009 16.2776C4.75483 16.2776 4.81952 16.274 4.8839 16.2669C4.99397 16.2511 5.1029 16.2276 5.20996 16.1966C5.55197 16.1073 7.43305 15.6309 7.03403 15.3629C6.74902 15.1842 4.99734 14.5673 4.47691 13.5358C4.46893 13.5185 4.19189 13.5269 4.01291 13.5376Z" fill="url(#paint21_linear_1482_2429)"/>
<path d="M11.1382 13.3398C10.4283 14.0893 9.59887 14.704 8.68711 15.1562C8.66098 15.1662 8.63726 15.1821 8.61757 15.2026C8.59789 15.2232 8.58271 15.248 8.57311 15.2753C8.50756 15.5564 9.4441 16.003 9.54215 16.0495C9.54215 16.0495 10.2518 16.3877 10.9102 16.4068C11.1285 16.4127 11.3662 16.3913 11.3662 16.3913C11.4734 16.3818 11.5703 16.3675 11.7082 16.3472C12.6353 16.1996 13.5149 15.8218 14.2733 15.2455C14.2733 15.2455 14.5014 15.0371 14.2733 14.8066C13.9883 14.5606 13.4753 13.6971 11.4802 13.2803C11.4802 13.2803 11.2522 13.2207 11.1382 13.3398Z" fill="url(#paint22_linear_1482_2429)"/>
<path d="M7.31907 15.6307C6.12202 16.524 5.70932 16.2656 5.666 16.4645C5.64434 16.5621 5.7173 16.661 5.78001 16.7325C6.38214 17.4262 7.22204 17.8435 8.11711 17.8937C9.43842 17.8937 10.5266 16.9409 10.4542 16.7027C10.4348 16.6384 10.3402 16.6509 9.82718 16.4645C9.62083 16.3894 9.49884 16.3454 9.37116 16.2858C9.02059 16.1232 8.89462 16.0333 8.28811 15.5712C8.17411 15.4848 8.03217 15.3717 7.83779 15.3741C7.65595 15.3782 7.54138 15.4771 7.31907 15.6307Z" fill="url(#paint23_linear_1482_2429)"/>
<path d="M1.50475 14.8286C1.48438 14.8014 1.45846 14.7792 1.42888 14.7638C1.39931 14.7483 1.36681 14.74 1.33375 14.7393H1.32976C1.26567 14.7473 1.20644 14.779 1.16274 14.8286C0.769993 15.2341 0.763723 15.8708 0.763723 15.8708C0.755726 16.0318 0.775023 16.1931 0.820725 16.3472C0.975772 16.845 1.43008 17.2125 1.90377 17.3C2.23381 17.3596 2.49432 17.2714 2.75881 17.1809C3.11995 17.0556 3.45172 16.8521 3.73241 16.5836C3.74536 16.5734 3.75594 16.5603 3.76334 16.5453C3.77075 16.5302 3.77479 16.5136 3.77516 16.4967C3.76946 16.4371 3.66799 16.3496 3.50611 16.2989C2.6448 15.9881 1.96077 15.3646 1.50475 14.8286Z" fill="url(#paint24_linear_1482_2429)"/>
<path d="M14.8435 15.2139C14.1194 15.8359 13.2727 16.2833 12.3639 16.524C12.3639 16.5276 12.0504 16.6151 12.3924 16.8534C12.3924 16.8534 13.2475 17.5084 14.3305 17.568C14.374 17.5658 14.417 17.5582 14.4588 17.5454C14.5383 17.5199 14.6113 17.4762 14.6725 17.4173C14.9245 17.1795 15.1231 16.8865 15.254 16.5592C15.3777 16.1356 15.3534 15.68 15.1855 15.2734C15.1641 15.2195 15.1231 15.1767 15.0715 15.1543C15.0321 15.14 14.9895 15.138 14.949 15.1485C14.9085 15.1591 14.8719 15.1818 14.8435 15.2139Z" fill="url(#paint25_linear_1482_2429)"/>
<path d="M4.01293 16.7026C3.66692 16.9944 2.7754 17.5268 2.41686 17.5959C2.37344 17.6015 2.33318 17.6225 2.30285 17.6555C2.21906 17.7543 2.28005 17.9425 2.30285 18.0128C2.49324 18.6041 3.21489 19.0847 3.21489 19.0847C3.55064 19.3086 3.94851 19.5653 4.43588 19.4861C4.52522 19.4715 4.61276 19.4467 4.69695 19.4123C4.97228 19.2658 5.79197 18.6607 6.46403 18.3701C6.81231 18.2188 7.02436 18.195 7.03405 18.0723C7.04545 17.9276 6.77469 17.8705 6.29302 17.5364C6.07755 17.3869 5.85011 17.163 5.38098 16.7324C5.30691 16.66 5.22273 16.5997 5.13131 16.5537C4.97714 16.4819 4.80829 16.4512 4.63995 16.4644C4.48128 16.4676 4.32537 16.5083 4.18393 16.5835C4.12307 16.6168 4.06575 16.6567 4.01293 16.7026Z" fill="url(#paint26_linear_1482_2429)"/>
<path d="M11.0243 16.7622C10.6298 16.8908 10.7393 16.9409 10.1692 17.4173C9.59922 17.8937 9.31421 17.8288 9.31421 18.0128C9.31421 18.2111 9.7081 18.2391 10.3403 18.6083C11.2004 19.1104 11.4233 19.6148 11.9717 19.5612C12.121 19.546 12.2649 19.4951 12.3923 19.4123C13.8527 18.5684 14.0454 18.1617 13.9884 17.9533C13.9371 17.7585 13.6931 17.8199 13.0194 17.4768C12.2213 17.0707 11.8987 16.6473 11.3093 16.7027C11.2125 16.7119 11.117 16.7318 11.0243 16.7622Z" fill="url(#paint27_linear_1482_2429)"/>
<path d="M8.06021 18.1648C8.13146 18.1648 8.18447 18.1648 8.23122 18.1648C8.83886 18.1844 10.1693 18.5775 11.3093 19.6375C11.5374 19.8757 11.266 20.0383 11.2523 20.0496C10.7269 20.4022 10.149 20.661 9.54227 20.8155C9.13722 20.9164 8.72328 20.9735 8.30703 20.9858C7.566 21.018 6.68189 21.0346 5.78011 20.5802C5.40048 20.3885 4.93078 20.1497 4.92508 19.8144C4.9171 19.5363 6.63515 18.2827 8.06021 18.1648Z" fill="url(#paint28_linear_1482_2429)"/>
</g>
<defs>
<linearGradient id="paint0_linear_1482_2429" x1="6.40361" y1="1.01239" x2="9.60201" y2="1.01239" gradientUnits="userSpaceOnUse">
<stop stop-color="#AA7100"/>
<stop offset="0.23" stop-color="#A16B00"/>
<stop offset="0.44" stop-color="#946300"/>
<stop offset="0.99" stop-color="#7F5800"/>
</linearGradient>
<linearGradient id="paint1_linear_1482_2429" x1="6.3992" y1="3.43019" x2="9.60102" y2="3.43019" gradientUnits="userSpaceOnUse">
<stop stop-color="#AA7100"/>
<stop offset="0.23" stop-color="#A16B00"/>
<stop offset="0.44" stop-color="#946300"/>
<stop offset="0.99" stop-color="#7F5800"/>
</linearGradient>
<linearGradient id="paint2_linear_1482_2429" x1="4.4051" y1="2.25104" x2="7.45871" y2="2.25104" gradientUnits="userSpaceOnUse">
<stop stop-color="#AA7100"/>
<stop offset="0.23" stop-color="#A16B00"/>
<stop offset="0.44" stop-color="#946300"/>
<stop offset="0.99" stop-color="#7F5800"/>
</linearGradient>
<linearGradient id="paint3_linear_1482_2429" x1="8.56852" y1="2.41259" x2="11.4209" y2="2.41259" gradientUnits="userSpaceOnUse">
<stop stop-color="#AA7100"/>
<stop offset="0.23" stop-color="#A16B00"/>
<stop offset="0.44" stop-color="#946300"/>
<stop offset="0.99" stop-color="#7F5800"/>
</linearGradient>
<linearGradient id="paint4_linear_1482_2429" x1="2.49658" y1="3.62317" x2="5.09646" y2="3.62317" gradientUnits="userSpaceOnUse">
<stop stop-color="#AA7100"/>
<stop offset="0.23" stop-color="#A16B00"/>
<stop offset="0.44" stop-color="#946300"/>
<stop offset="0.99" stop-color="#7F5800"/>
</linearGradient>
<linearGradient id="paint5_linear_1482_2429" x1="10.5636" y1="3.75829" x2="13.2592" y2="3.75829" gradientUnits="userSpaceOnUse">
<stop stop-color="#AA7100"/>
<stop offset="0.23" stop-color="#A16B00"/>
<stop offset="0.44" stop-color="#946300"/>
<stop offset="0.99" stop-color="#7F5800"/>
</linearGradient>
<linearGradient id="paint6_linear_1482_2429" x1="8.51275" y1="5.09588" x2="12.5947" y2="5.09588" gradientUnits="userSpaceOnUse">
<stop stop-color="#AA7100"/>
<stop offset="0.23" stop-color="#A16B00"/>
<stop offset="0.44" stop-color="#946300"/>
<stop offset="0.99" stop-color="#7F5800"/>
</linearGradient>
<linearGradient id="paint7_linear_1482_2429" x1="3.30164" y1="4.90654" x2="7.20402" y2="4.90654" gradientUnits="userSpaceOnUse">
<stop stop-color="#AA7100"/>
<stop offset="0.23" stop-color="#A16B00"/>
<stop offset="0.44" stop-color="#946300"/>
<stop offset="0.99" stop-color="#7F5800"/>
</linearGradient>
<linearGradient id="paint8_linear_1482_2429" x1="5.66252" y1="6.30374" x2="9.99698" y2="6.30374" gradientUnits="userSpaceOnUse">
<stop stop-color="#AA7100"/>
<stop offset="0.23" stop-color="#A16B00"/>
<stop offset="0.44" stop-color="#946300"/>
<stop offset="0.99" stop-color="#7F5800"/>
</linearGradient>
<linearGradient id="paint9_linear_1482_2429" x1="1.50141" y1="6.02487" x2="4.01977" y2="6.02487" gradientUnits="userSpaceOnUse">
<stop stop-color="#AA7100"/>
<stop offset="0.23" stop-color="#A16B00"/>
<stop offset="0.44" stop-color="#946300"/>
<stop offset="0.99" stop-color="#7F5800"/>
</linearGradient>
<linearGradient id="paint10_linear_1482_2429" x1="11.7772" y1="6.37814" x2="14.2956" y2="6.37814" gradientUnits="userSpaceOnUse">
<stop stop-color="#AA7100"/>
<stop offset="0.23" stop-color="#A16B00"/>
<stop offset="0.44" stop-color="#946300"/>
<stop offset="0.99" stop-color="#7F5800"/>
</linearGradient>
<linearGradient id="paint11_linear_1482_2429" x1="2.4095" y1="7.87993" x2="6.79128" y2="7.87993" gradientUnits="userSpaceOnUse">
<stop stop-color="#AA7100"/>
<stop offset="0.23" stop-color="#A16B00"/>
<stop offset="0.44" stop-color="#946300"/>
<stop offset="0.99" stop-color="#7F5800"/>
</linearGradient>
<linearGradient id="paint12_linear_1482_2429" x1="8.8383" y1="8.23965" x2="13.671" y2="8.23965" gradientUnits="userSpaceOnUse">
<stop stop-color="#AA7100"/>
<stop offset="0.23" stop-color="#A16B00"/>
<stop offset="0.44" stop-color="#946300"/>
<stop offset="0.99" stop-color="#7F5800"/>
</linearGradient>
<linearGradient id="paint13_linear_1482_2429" x1="5.01454" y1="9.859" x2="10.521" y2="9.859" gradientUnits="userSpaceOnUse">
<stop stop-color="#AA7100"/>
<stop offset="0.23" stop-color="#A16B00"/>
<stop offset="0.44" stop-color="#946300"/>
<stop offset="0.99" stop-color="#7F5800"/>
</linearGradient>
<linearGradient id="paint14_linear_1482_2429" x1="0.727898" y1="9.12932" x2="4.11156" y2="9.12932" gradientUnits="userSpaceOnUse">
<stop stop-color="#AA7100"/>
<stop offset="0.23" stop-color="#A16B00"/>
<stop offset="0.44" stop-color="#946300"/>
<stop offset="0.99" stop-color="#7F5800"/>
</linearGradient>
<linearGradient id="paint15_linear_1482_2429" x1="11.8615" y1="9.261" x2="15.1466" y2="9.261" gradientUnits="userSpaceOnUse">
<stop stop-color="#AA7100"/>
<stop offset="0.23" stop-color="#A16B00"/>
<stop offset="0.44" stop-color="#946300"/>
<stop offset="0.99" stop-color="#7F5800"/>
</linearGradient>
<linearGradient id="paint16_linear_1482_2429" x1="2.09547" y1="11.4745" x2="6.748" y2="11.4745" gradientUnits="userSpaceOnUse">
<stop stop-color="#AA7100"/>
<stop offset="0.23" stop-color="#A16B00"/>
<stop offset="0.44" stop-color="#946300"/>
<stop offset="0.99" stop-color="#7F5800"/>
</linearGradient>
<linearGradient id="paint17_linear_1482_2429" x1="8.73951" y1="11.6224" x2="14.0601" y2="11.6224" gradientUnits="userSpaceOnUse">
<stop stop-color="#AA7100"/>
<stop offset="0.23" stop-color="#A16B00"/>
<stop offset="0.44" stop-color="#946300"/>
<stop offset="0.99" stop-color="#7F5800"/>
</linearGradient>
<linearGradient id="paint18_linear_1482_2429" x1="4.98663" y1="13.5368" x2="10.5797" y2="13.5368" gradientUnits="userSpaceOnUse">
<stop stop-color="#AA7100"/>
<stop offset="0.23" stop-color="#A16B00"/>
<stop offset="0.44" stop-color="#946300"/>
<stop offset="0.99" stop-color="#7F5800"/>
</linearGradient>
<linearGradient id="paint19_linear_1482_2429" x1="6.91925e-05" y1="12.7568" x2="3.73259" y2="12.7568" gradientUnits="userSpaceOnUse">
<stop stop-color="#AA7100"/>
<stop offset="0.23" stop-color="#A16B00"/>
<stop offset="0.44" stop-color="#946300"/>
<stop offset="0.99" stop-color="#7F5800"/>
</linearGradient>
<linearGradient id="paint20_linear_1482_2429" x1="12.1887" y1="12.9438" x2="16.0005" y2="12.9438" gradientUnits="userSpaceOnUse">
<stop stop-color="#AA7100"/>
<stop offset="0.23" stop-color="#A16B00"/>
<stop offset="0.44" stop-color="#946300"/>
<stop offset="0.99" stop-color="#7F5800"/>
</linearGradient>
<linearGradient id="paint21_linear_1482_2429" x1="1.79323" y1="14.9025" x2="7.08647" y2="14.9025" gradientUnits="userSpaceOnUse">
<stop stop-color="#AA7100"/>
<stop offset="0.23" stop-color="#A16B00"/>
<stop offset="0.44" stop-color="#946300"/>
<stop offset="0.99" stop-color="#7F5800"/>
</linearGradient>
<linearGradient id="paint22_linear_1482_2429" x1="8.56684" y1="14.8364" x2="14.372" y2="14.8364" gradientUnits="userSpaceOnUse">
<stop stop-color="#AA7100"/>
<stop offset="0.23" stop-color="#A16B00"/>
<stop offset="0.44" stop-color="#946300"/>
<stop offset="0.99" stop-color="#7F5800"/>
</linearGradient>
<linearGradient id="paint23_linear_1482_2429" x1="5.65916" y1="16.636" x2="10.4548" y2="16.636" gradientUnits="userSpaceOnUse">
<stop stop-color="#AA7100"/>
<stop offset="0.23" stop-color="#A16B00"/>
<stop offset="0.44" stop-color="#946300"/>
<stop offset="0.99" stop-color="#7F5800"/>
</linearGradient>
<linearGradient id="paint24_linear_1482_2429" x1="0.760303" y1="16.0298" x2="3.77573" y2="16.0298" gradientUnits="userSpaceOnUse">
<stop stop-color="#AA7100"/>
<stop offset="0.23" stop-color="#A16B00"/>
<stop offset="0.44" stop-color="#946300"/>
<stop offset="0.99" stop-color="#7F5800"/>
</linearGradient>
<linearGradient id="paint25_linear_1482_2429" x1="12.2294" y1="16.3555" x2="15.3309" y2="16.3555" gradientUnits="userSpaceOnUse">
<stop stop-color="#AA7100"/>
<stop offset="0.23" stop-color="#A16B00"/>
<stop offset="0.44" stop-color="#946300"/>
<stop offset="0.99" stop-color="#7F5800"/>
</linearGradient>
<linearGradient id="paint26_linear_1482_2429" x1="2.25725" y1="17.9836" x2="7.0312" y2="17.9836" gradientUnits="userSpaceOnUse">
<stop stop-color="#AA7100"/>
<stop offset="0.23" stop-color="#A16B00"/>
<stop offset="0.44" stop-color="#946300"/>
<stop offset="0.99" stop-color="#7F5800"/>
</linearGradient>
<linearGradient id="paint27_linear_1482_2429" x1="9.31136" y1="18.1331" x2="13.9935" y2="18.1331" gradientUnits="userSpaceOnUse">
<stop stop-color="#AA7100"/>
<stop offset="0.23" stop-color="#A16B00"/>
<stop offset="0.44" stop-color="#946300"/>
<stop offset="0.99" stop-color="#7F5800"/>
</linearGradient>
<linearGradient id="paint28_linear_1482_2429" x1="4.92223" y1="19.5815" x2="11.3971" y2="19.5815" gradientUnits="userSpaceOnUse">
<stop stop-color="#AA7100"/>
<stop offset="0.23" stop-color="#A16B00"/>
<stop offset="0.44" stop-color="#946300"/>
<stop offset="0.99" stop-color="#7F5800"/>
</linearGradient>
<clipPath id="clip0_1482_2429">
<rect width="16" height="21" fill="white"/>
</clipPath>
</defs>
</svg>
