<svg width="21" height="21" viewBox="0 0 21 21" fill="none" xmlns="http://www.w3.org/2000/svg">
<path d="M13.5143 21H7.72624C2.48805 21 0.25 18.734 0.25 13.4302V7.56977C0.25 2.26605 2.48805 0 7.72624 0H13.5143C18.7525 0 20.9905 2.26605 20.9905 7.56977V13.4302C20.9905 18.734 18.7525 21 13.5143 21ZM7.72624 1.46512C3.27908 1.46512 1.69701 3.06698 1.69701 7.56977V13.4302C1.69701 17.933 3.27908 19.5349 7.72624 19.5349H13.5143C17.9614 19.5349 19.5435 17.933 19.5435 13.4302V7.56977C19.5435 3.06698 17.9614 1.46512 13.5143 1.46512H7.72624Z" fill="#333333"/>
<path d="M7.72634 9.27908C6.26004 9.27908 5.07349 8.07768 5.07349 6.59303C5.07349 5.10838 6.26004 3.90698 7.72634 3.90698C9.19265 3.90698 10.3792 5.10838 10.3792 6.59303C10.3792 8.07768 9.19265 9.27908 7.72634 9.27908ZM7.72634 5.3721C7.06072 5.3721 6.5205 5.91908 6.5205 6.59303C6.5205 7.26698 7.06072 7.81396 7.72634 7.81396C8.39197 7.81396 8.93219 7.26698 8.93219 6.59303C8.93219 5.91908 8.39197 5.3721 7.72634 5.3721Z" fill="#333333"/>
<path d="M1.61971 18.0208C1.38818 18.0208 1.15666 17.9036 1.02161 17.6985C0.799731 17.3664 0.886552 16.9073 1.22419 16.6827L5.98004 13.4497C7.02189 12.7366 8.45926 12.8245 9.40464 13.6352L9.72298 13.9185C10.2053 14.3385 11.0253 14.3385 11.498 13.9185L15.511 10.4315C16.5336 9.54268 18.1446 9.54268 19.1768 10.4315L20.7492 11.799C21.0483 12.0627 21.0869 12.5218 20.8264 12.8343C20.5659 13.1371 20.1125 13.1762 19.8038 12.9125L18.2314 11.545C17.7491 11.125 16.9291 11.125 16.4468 11.545L12.4337 15.032C11.4112 15.9208 9.80016 15.9208 8.76795 15.032L8.44961 14.7487C8.00586 14.3678 7.27271 14.3287 6.78072 14.6706L2.02487 17.9036C1.89946 17.9818 1.75476 18.0208 1.61971 18.0208Z" fill="#333333"/>
</svg>
