<svg width="16" height="18" viewBox="0 0 16 18" fill="none" xmlns="http://www.w3.org/2000/svg">
<path d="M3.41667 12C3.41667 11.7049 3.24358 11.4372 2.97444 11.3161C2.75193 11.2159 2.18513 10.8177 1.67319 10.0745C1.17522 9.35167 0.75 8.33116 0.75 7C0.75 3.63916 3.89873 0.75 8 0.75C10.0639 0.75 11.8851 1.37195 13.1764 2.44924C14.4553 3.51621 15.25 5.05618 15.25 7C15.25 8.78959 14.5618 10.201 13.4052 11.1768C12.2359 12.1634 10.5313 12.75 8.44444 12.75C8.27749 12.75 8.11531 12.8057 7.9836 12.9083L3.41667 16.4652V12ZM3.01305 16.7796C3.01316 16.7795 3.01326 16.7794 3.01336 16.7793L3.01305 16.7796Z" stroke="#333333" stroke-opacity="0.8" stroke-width="1.5" stroke-linecap="round" stroke-linejoin="round"/>
</svg>
