<svg width="17" height="18" viewBox="0 0 17 18" fill="none" xmlns="http://www.w3.org/2000/svg">
<path fill-rule="evenodd" clip-rule="evenodd" d="M6.30023 1.1048C6.57363 0.449428 7.2793 -0.145152 8.1697 0.0315126C9.53116 0.300309 10.9767 1.3622 11.0783 3.0842L11.0838 3.27796V5.65248H13.3052C13.8311 5.65245 14.351 5.76789 14.83 5.99106C15.3091 6.21424 15.7363 6.54001 16.083 6.9466C16.4298 7.35319 16.6882 7.83122 16.8409 8.34874C16.9936 8.86626 17.037 9.41133 16.9684 9.94752L16.9407 10.1318L16.1002 14.8808C15.9511 15.7243 15.5291 16.4911 14.9026 17.0567C14.2761 17.6223 13.482 17.9534 12.6494 17.9962L12.4656 18H2.77096C2.06417 18 1.38408 17.7223 0.869839 17.2237C0.355599 16.7251 0.0460833 16.0433 0.00461837 15.3177L4.30463e-09 15.1506V9.45172C-3.93676e-05 8.72491 0.270007 8.02557 0.754885 7.49676C1.23976 6.96796 1.90282 6.64968 2.60839 6.60704L2.77096 6.60229H4.00865L6.30023 1.1048ZM3.69461 8.50191H2.77096C2.52599 8.50191 2.29105 8.60198 2.11783 8.7801C1.94462 8.95823 1.8473 9.19981 1.8473 9.45172V15.1506C1.8473 15.4025 1.94462 15.6441 2.11783 15.8222C2.29105 16.0003 2.52599 16.1004 2.77096 16.1004H3.69461V8.50191ZM7.9665 1.92923L5.61673 7.56825C5.58389 7.6468 5.56152 7.72954 5.55022 7.81425L5.54191 7.94152V16.1004H12.4656C12.8729 16.1004 13.2688 15.962 13.5916 15.7068C13.9145 15.4515 14.1464 15.0937 14.251 14.689L14.2833 14.5408L15.1239 9.79175C15.1703 9.5296 15.1626 9.26033 15.1012 9.00144C15.0399 8.74255 14.9262 8.49984 14.7677 8.28906C14.6092 8.07829 14.4093 7.90417 14.181 7.77802C13.9528 7.65187 13.7013 7.57652 13.4428 7.55685L13.3052 7.5521H11.0838C10.6178 7.55225 10.1689 7.37125 9.82715 7.04538C9.48541 6.71951 9.27609 6.27286 9.24114 5.79495L9.23652 5.65248V3.27796C9.23652 2.75272 8.83565 2.21797 8.12352 1.97672L7.9665 1.92923Z" fill="#333333" fill-opacity="0.8"/>
</svg>
