<svg width="8" height="11" viewBox="0 0 8 11" fill="none" xmlns="http://www.w3.org/2000/svg">
<path d="M3.8253 5.24718C3.81012 5.24718 3.8 5.24718 3.78482 5.24718C3.75953 5.24212 3.72411 5.24212 3.69375 5.24718C2.22636 5.20164 1.11823 4.04797 1.11823 2.62612C1.11823 1.17897 2.2972 0 3.74435 0C5.19149 0 6.37047 1.17897 6.37047 2.62612C6.36541 4.04797 5.25221 5.20164 3.84048 5.24718C3.83542 5.24718 3.83036 5.24718 3.8253 5.24718ZM3.74435 0.758994C2.71717 0.758994 1.87722 1.59895 1.87722 2.62612C1.87722 3.63811 2.66657 4.45277 3.67351 4.48819C3.69881 4.48313 3.76965 4.48313 3.83542 4.48819C4.82718 4.44265 5.60641 3.62799 5.61147 2.62612C5.61147 1.59895 4.77152 0.758994 3.74435 0.758994Z" fill="#333333" fill-opacity="0.6"/>
<path d="M3.83039 10.7778C2.83864 10.7778 1.84183 10.5248 1.08789 10.0188C0.384557 9.55326 0 8.91571 0 8.22249C0 7.52928 0.384557 6.88666 1.08789 6.41609C2.60588 5.40916 5.06502 5.40916 6.57289 6.41609C7.27116 6.8816 7.66078 7.51916 7.66078 8.21237C7.66078 8.90559 7.27622 9.5482 6.57289 10.0188C5.8139 10.5248 4.82214 10.7778 3.83039 10.7778ZM1.50787 7.05364C1.02211 7.37748 0.758994 7.7924 0.758994 8.22755C0.758994 8.65765 1.02717 9.07257 1.50787 9.39135C2.7678 10.2364 4.89298 10.2364 6.15291 9.39135C6.63867 9.06751 6.90179 8.65259 6.90179 8.21743C6.90179 7.78734 6.63361 7.37242 6.15291 7.05364C4.89298 6.21369 2.7678 6.21369 1.50787 7.05364Z" fill="#333333" fill-opacity="0.6"/>
</svg>
