<svg width="64" height="65" viewBox="0 0 64 65" fill="none" xmlns="http://www.w3.org/2000/svg">
<path d="M32 65C14.3269 65 0 50.4493 0 32.5C0 14.5507 14.3269 0 32 0C49.6731 0 64 14.5507 64 32.5C63.9806 50.4411 49.6651 64.9803 32 65ZM32 5C17.8615 5 5 18.1406 5 32.5C5 46.8594 17.8615 60 32 60C46.1385 60 59 46.8139 59 32.4545C58.9841 18.1018 46.1319 5.01612 32 5ZM44.8 45.875C44.8 47.4628 43.5128 48.75 41.925 48.75H22.075C20.4872 48.75 19.2 47.4628 19.2 45.875C19.2 44.2872 20.4872 43 22.075 43H41.925C43.5128 43 44.8 44.2872 44.8 45.875ZM20.8 32.5C18.149 32.5 16 30.3174 16 27.625C16 24.9326 18.149 22.75 20.8 22.75C23.451 22.75 25.6 24.9326 25.6 27.625C25.6 30.3174 23.451 32.5 20.8 32.5ZM43.1776 32.4545C40.539 32.4545 38.4 30.2821 38.4 27.6022C38.4 24.9224 40.539 22.75 43.1776 22.75C45.8162 22.75 47.9552 24.9224 47.9552 27.6022C47.9517 30.2806 45.8147 32.4509 43.1776 32.4545Z" fill="#333333" fill-opacity="0.9"/>
</svg>
