<svg width="24" height="25" viewBox="0 0 24 25" fill="none" xmlns="http://www.w3.org/2000/svg">
<path d="M12 25C5.37258 25 0 19.4036 0 12.5C0 5.59644 5.37258 0 12 0C18.6274 0 24 5.59644 24 12.5C23.9927 19.4004 18.6244 24.9924 12 25ZM12 1.92308C6.69807 1.92308 1.875 6.97715 1.875 12.5C1.875 18.0228 6.69807 23.0769 12 23.0769C17.3019 23.0769 22.125 18.0053 22.125 12.4825C22.119 6.96222 17.2995 1.92928 12 1.92308ZM16.8 17.6442C16.8 18.2549 16.3049 18.75 15.6942 18.75H8.30577C7.69507 18.75 7.2 18.2549 7.2 17.6442C7.2 17.0335 7.69507 16.5385 8.30577 16.5385H15.6942C16.3049 16.5385 16.8 17.0335 16.8 17.6442ZM7.8 12.5C6.80589 12.5 6 11.6605 6 10.625C6 9.58947 6.80589 8.75 7.8 8.75C8.79411 8.75 9.6 9.58947 9.6 10.625C9.6 11.6605 8.79411 12.5 7.8 12.5ZM16.1916 12.4825C15.2021 12.4825 14.4 11.647 14.4 10.6163C14.4 9.58555 15.2021 8.75 16.1916 8.75C17.1811 8.75 17.9832 9.58555 17.9832 10.6163C17.9819 11.6464 17.1805 12.4811 16.1916 12.4825Z" fill="#333333" fill-opacity="0.9"/>
</svg>
