<svg width="8" height="12" viewBox="0 0 8 12" fill="none" xmlns="http://www.w3.org/2000/svg">
<path d="M4 0C4.73638 0 5.33333 0.596954 5.33333 1.33333V5.33333C5.33333 6.06971 4.73638 6.66667 4 6.66667C3.26362 6.66667 2.66667 6.06971 2.66667 5.33333V1.33333C2.66667 0.596954 3.26362 0 4 0Z" fill="#333333" fill-opacity="0.9"/>
<path d="M0.666667 4.66667C1.03486 4.66667 1.33333 4.96514 1.33333 5.33333C1.33333 6.80609 2.52724 8 4 8C5.47276 8 6.66667 6.80609 6.66667 5.33333C6.66667 4.96514 6.96514 4.66667 7.33333 4.66667C7.70152 4.66667 8 4.96514 8 5.33333C8 7.31611 6.55734 8.96194 4.66443 9.2784C4.66591 9.29652 4.66667 9.31484 4.66667 9.33333V10.6667H6C6.36819 10.6667 6.66667 10.9651 6.66667 11.3333C6.66667 11.7015 6.36819 12 6 12H2C1.63181 12 1.33333 11.7015 1.33333 11.3333C1.33333 10.9651 1.63181 10.6667 2 10.6667H3.33333V9.33333C3.33333 9.31484 3.33409 9.29652 3.33557 9.2784C1.44266 8.96194 0 7.31611 0 5.33333C0 4.96514 0.298477 4.66667 0.666667 4.66667Z" fill="#333333" fill-opacity="0.9"/>
</svg>
