<svg width="17" height="18" viewBox="0 0 17 18" fill="none" xmlns="http://www.w3.org/2000/svg">
<g id="Group 131">
<path id="Vector" d="M5.49425 3.66276C5.16053 3.66276 4.88379 3.38602 4.88379 3.0523V0.610461C4.88379 0.276742 5.16053 0 5.49425 0C5.82797 0 6.10471 0.276742 6.10471 0.610461V3.0523C6.10471 3.38602 5.82797 3.66276 5.49425 3.66276Z" fill="#333333"/>
<path id="Vector_2" d="M12.0057 3.66276C11.672 3.66276 11.3953 3.38602 11.3953 3.0523V0.610461C11.3953 0.276742 11.672 0 12.0057 0C12.3394 0 12.6162 0.276742 12.6162 0.610461V3.0523C12.6162 3.38602 12.3394 3.66276 12.0057 3.66276Z" fill="#333333"/>
<path id="Vector_3" d="M15.6685 6.99192H1.83141C1.49769 6.99192 1.22095 6.71518 1.22095 6.38146C1.22095 6.04774 1.49769 5.771 1.83141 5.771H15.6685C16.0022 5.771 16.279 6.04774 16.279 6.38146C16.279 6.71518 16.0022 6.99192 15.6685 6.99192Z" fill="#333333"/>
<path id="Vector_4" d="M12.0057 17.4997H5.49416C2.52325 17.4997 0.813965 15.7904 0.813965 12.8195V5.9009C0.813965 2.92999 2.52325 1.2207 5.49416 1.2207H12.0057C14.9767 1.2207 16.6859 2.92999 16.6859 5.9009V12.8195C16.6859 15.7904 14.9767 17.4997 12.0057 17.4997ZM5.49416 2.44162C3.16627 2.44162 2.03489 3.57301 2.03489 5.9009V12.8195C2.03489 15.1473 3.16627 16.2787 5.49416 16.2787H12.0057C14.3336 16.2787 15.465 15.1473 15.465 12.8195V5.9009C15.465 3.57301 14.3336 2.44162 12.0057 2.44162H5.49416Z" fill="#333333"/>
<path id="Vector_5" d="M5.90111 10.7846C5.79529 10.7846 5.68948 10.7602 5.5918 10.7195C5.49413 10.6788 5.4046 10.6218 5.32321 10.5486C5.24995 10.4672 5.19296 10.3777 5.15226 10.28C5.11157 10.1823 5.08716 10.0765 5.08716 9.9707C5.08716 9.75907 5.1767 9.54745 5.32321 9.3928C5.4046 9.31954 5.49413 9.26255 5.5918 9.22185C5.73831 9.15674 5.90112 9.14046 6.06391 9.17302C6.11274 9.18116 6.16157 9.19743 6.21041 9.22185C6.25925 9.23813 6.30808 9.26257 6.35691 9.29513C6.39761 9.32769 6.4383 9.36024 6.479 9.3928C6.51156 9.4335 6.55225 9.47419 6.57667 9.51489C6.60923 9.56372 6.63367 9.61255 6.64995 9.66139C6.67437 9.71023 6.69064 9.75906 6.69878 9.8079C6.70692 9.86487 6.71505 9.91372 6.71505 9.9707C6.71505 10.1823 6.62551 10.3939 6.479 10.5486C6.32435 10.6951 6.11273 10.7846 5.90111 10.7846Z" fill="#333333"/>
<path id="Vector_6" d="M8.74998 10.7847C8.53836 10.7847 8.32674 10.6952 8.17209 10.5487C8.13953 10.508 8.10698 10.4673 8.07442 10.4266C8.04186 10.3777 8.01742 10.3289 8.00114 10.2801C7.97672 10.2312 7.96044 10.1824 7.95231 10.1336C7.94417 10.0766 7.93604 10.0277 7.93604 9.97076C7.93604 9.86495 7.96044 9.75913 8.00114 9.66146C8.04184 9.56379 8.09883 9.47426 8.17209 9.39287C8.39999 9.16496 8.76627 9.09169 9.05929 9.22192C9.1651 9.26262 9.24648 9.31961 9.32788 9.39287C9.47439 9.54752 9.56393 9.75914 9.56393 9.97076C9.56393 10.0277 9.5558 10.0766 9.54766 10.1336C9.53952 10.1824 9.52324 10.2312 9.49883 10.2801C9.48255 10.3289 9.45811 10.3777 9.42555 10.4266C9.39299 10.4673 9.36044 10.508 9.32788 10.5487C9.24648 10.6219 9.1651 10.6789 9.05929 10.7196C8.96161 10.7603 8.8558 10.7847 8.74998 10.7847Z" fill="#333333"/>
<path id="Vector_7" d="M5.90111 13.6338C5.79529 13.6338 5.68948 13.6094 5.5918 13.5687C5.49413 13.528 5.4046 13.471 5.32321 13.3978C5.24995 13.3164 5.19296 13.235 5.15226 13.1292C5.11157 13.0315 5.08716 12.9257 5.08716 12.8199C5.08716 12.6083 5.1767 12.3966 5.32321 12.242C5.4046 12.1687 5.49413 12.1117 5.5918 12.071C5.89296 11.9408 6.2511 12.0141 6.479 12.242C6.51156 12.2827 6.55225 12.3234 6.57667 12.3641C6.60923 12.4129 6.63367 12.4617 6.64995 12.5106C6.67437 12.5594 6.69064 12.6083 6.69878 12.6652C6.70692 12.7141 6.71505 12.771 6.71505 12.8199C6.71505 13.0315 6.62551 13.2431 6.479 13.3978C6.32435 13.5443 6.11273 13.6338 5.90111 13.6338Z" fill="#333333"/>
</g>
</svg>
