<svg width="18" height="18" viewBox="0 0 18 18" fill="none" xmlns="http://www.w3.org/2000/svg">
<path d="M17.0395 8.86063C17.0395 8.27187 16.9918 7.67992 16.8899 7.10071H8.72046V10.436H13.3987C13.2046 11.5116 12.5808 12.4632 11.6675 13.0679V15.232H14.4585C16.0975 13.7235 17.0395 11.4957 17.0395 8.86063Z" fill="#4285F4"/>
<path d="M8.72054 17.3229C11.0565 17.3229 13.0265 16.5559 14.4618 15.232L11.6707 13.0679C10.8942 13.5962 9.8917 13.8954 8.72372 13.8954C6.46415 13.8954 4.54829 12.3709 3.86087 10.3214H0.980713V12.5523C2.45103 15.4771 5.44575 17.3229 8.72054 17.3229Z" fill="#34A853"/>
<path d="M3.85763 10.3213C3.49483 9.24557 3.49483 8.08078 3.85763 7.0051V4.77417H0.980658C-0.247784 7.22151 -0.247784 10.1048 0.980658 12.5522L3.85763 10.3213Z" fill="#FBBC04"/>
<path d="M8.72054 3.42813C9.95535 3.40903 11.1488 3.87368 12.0431 4.72659L14.5159 2.25379C12.9501 0.783477 10.8719 -0.0248763 8.72054 0.000583665C5.44575 0.000583665 2.45102 1.84643 0.980713 4.77432L3.85769 7.00525C4.54192 4.95254 6.46097 3.42813 8.72054 3.42813Z" fill="#EA4335"/>
</svg>
