<svg width="16" height="17" viewBox="0 0 16 17" fill="none" xmlns="http://www.w3.org/2000/svg">
<path d="M3.49934 10.1118C3.32472 10.1177 3.15715 10.1835 3.01886 10.2903C1.39736 11.5424 0.278284 13.3926 0.00721527 15.5019C-0.063179 16.0497 0.391291 16.4998 0.943575 16.4998H15.0442C15.5965 16.4998 16.051 16.0497 15.9806 15.5019C15.7096 13.3928 14.5907 11.5427 12.9694 10.2906C12.8312 10.1838 12.6637 10.118 12.4892 10.1121C11.9781 10.0946 11.7187 10.2137 11.519 10.4394C11.1338 10.8749 11.3867 11.5821 11.8398 11.9466C12.6724 12.6163 13.3162 13.4975 13.6874 14.4998H2.30043C2.67173 13.4972 3.31571 12.6159 4.14859 11.9461C4.60163 11.5818 4.85474 10.8747 4.46956 10.4393C4.26994 10.2136 4.01043 10.0945 3.49934 10.1118Z" fill="#333333" fill-opacity="0.9"/>
<circle cx="7.99438" cy="5" r="4.1" stroke="#333333" stroke-opacity="0.9" stroke-width="1.8"/>
</svg>
