<svg width="22" height="22" viewBox="0 0 22 22" fill="none" xmlns="http://www.w3.org/2000/svg">
<path d="M16.7498 6.65977C16.7198 6.65977 16.6998 6.65977 16.6698 6.65977H16.6198C14.7298 6.59977 13.3198 5.13977 13.3198 3.33977C13.3198 1.49977 14.8198 0.00976562 16.6498 0.00976562C18.4798 0.00976562 19.9798 1.50977 19.9798 3.33977C19.9698 5.14977 18.5598 6.60977 16.7598 6.66977C16.7598 6.65977 16.7598 6.65977 16.7498 6.65977ZM16.6498 1.49977C15.6398 1.49977 14.8198 2.31977 14.8198 3.32977C14.8198 4.31977 15.5898 5.11977 16.5798 5.15977C16.5898 5.14977 16.6698 5.14977 16.7598 5.15977C17.7298 5.10977 18.4798 4.30977 18.4898 3.32977C18.4898 2.31977 17.6698 1.49977 16.6498 1.49977Z" fill="#292D32"/>
<path d="M16.76 14.0301C16.37 14.0301 15.98 14.0001 15.59 13.9301C15.18 13.8601 14.91 13.4701 14.98 13.0601C15.05 12.6501 15.44 12.3801 15.85 12.4501C17.08 12.6601 18.38 12.4302 19.25 11.8502C19.72 11.5402 19.97 11.1501 19.97 10.7601C19.97 10.3701 19.71 9.99014 19.25 9.68014C18.38 9.10014 17.06 8.87015 15.82 9.09015C15.41 9.17015 15.02 8.89015 14.95 8.48015C14.88 8.07015 15.15 7.68015 15.56 7.61015C17.19 7.32015 18.88 7.63014 20.08 8.43014C20.96 9.02014 21.47 9.86014 21.47 10.7601C21.47 11.6501 20.97 12.5002 20.08 13.1002C19.17 13.7002 17.99 14.0301 16.76 14.0301Z" fill="#292D32"/>
<path d="M4.71998 6.66C4.70998 6.66 4.69998 6.66 4.69998 6.66C2.89998 6.6 1.48998 5.14 1.47998 3.34C1.47998 1.5 2.97998 0 4.80998 0C6.63998 0 8.13998 1.5 8.13998 3.33C8.13998 5.14 6.72998 6.6 4.92998 6.66L4.71998 5.91L4.78998 6.66C4.76998 6.66 4.73998 6.66 4.71998 6.66ZM4.81998 5.16C4.87998 5.16 4.92998 5.16 4.98998 5.17C5.87998 5.13 6.65998 4.33 6.65998 3.34C6.65998 2.33 5.83998 1.50999 4.82998 1.50999C3.81998 1.50999 2.99998 2.33 2.99998 3.34C2.99998 4.32 3.75998 5.11 4.72998 5.17C4.73998 5.16 4.77998 5.16 4.81998 5.16Z" fill="#292D32"/>
<path d="M4.71 14.0301C3.48 14.0301 2.3 13.7002 1.39 13.1002C0.509999 12.5102 0 11.6601 0 10.7601C0 9.87014 0.509999 9.02014 1.39 8.43014C2.59 7.63014 4.28 7.32015 5.91 7.61015C6.32 7.68015 6.59 8.07015 6.52 8.48015C6.45 8.89015 6.06 9.17015 5.65 9.09015C4.41 8.87015 3.1 9.10014 2.22 9.68014C1.75 9.99014 1.5 10.3701 1.5 10.7601C1.5 11.1501 1.76 11.5402 2.22 11.8502C3.09 12.4302 4.39 12.6601 5.62 12.4501C6.03 12.3801 6.42 12.6601 6.49 13.0601C6.56 13.4701 6.29 13.8601 5.88 13.9301C5.49 14.0001 5.1 14.0301 4.71 14.0301Z" fill="#292D32"/>
<path d="M10.7498 14.13C10.7198 14.13 10.6998 14.13 10.6698 14.13H10.6198C8.72982 14.07 7.31982 12.61 7.31982 10.81C7.31982 8.96998 8.81983 7.47998 10.6498 7.47998C12.4798 7.47998 13.9798 8.97998 13.9798 10.81C13.9698 12.62 12.5598 14.08 10.7598 14.14C10.7598 14.13 10.7598 14.13 10.7498 14.13ZM10.6498 8.96999C9.63983 8.96999 8.81982 9.78999 8.81982 10.8C8.81982 11.79 9.58983 12.59 10.5798 12.63C10.5898 12.62 10.6698 12.62 10.7598 12.63C11.7298 12.58 12.4798 11.78 12.4898 10.8C12.4898 9.79999 11.6698 8.96999 10.6498 8.96999Z" fill="#292D32"/>
<path d="M10.7498 21.5097C9.54979 21.5097 8.34978 21.1997 7.41978 20.5697C6.53978 19.9797 6.02979 19.1397 6.02979 18.2397C6.02979 17.3497 6.52978 16.4897 7.41978 15.8997C9.28978 14.6597 12.2198 14.6597 14.0798 15.8997C14.9598 16.4897 15.4698 17.3297 15.4698 18.2297C15.4698 19.1197 14.9698 19.9797 14.0798 20.5697C13.1498 21.1897 11.9498 21.5097 10.7498 21.5097ZM8.24979 17.1597C7.77979 17.4697 7.52979 17.8597 7.52979 18.2497C7.52979 18.6397 7.78979 19.0197 8.24979 19.3297C9.59979 20.2397 11.8898 20.2397 13.2398 19.3297C13.7098 19.0197 13.9598 18.6297 13.9598 18.2397C13.9598 17.8497 13.6998 17.4697 13.2398 17.1597C11.8998 16.2497 9.60979 16.2597 8.24979 17.1597Z" fill="#292D32"/>
</svg>
