<svg width="16" height="18" viewBox="0 0 16 18" fill="none" xmlns="http://www.w3.org/2000/svg">
<path d="M7.5048 10.3412C5.79993 10.3412 4.40723 8.9565 4.40723 7.24362C4.40723 5.53075 5.79993 4.15405 7.5048 4.15405C9.20967 4.15405 10.6024 5.53876 10.6024 7.25163C10.6024 8.9645 9.20967 10.3412 7.5048 10.3412ZM7.5048 5.35466C6.46427 5.35466 5.60784 6.2031 5.60784 7.25163C5.60784 8.30016 6.45627 9.14859 7.5048 9.14859C8.55334 9.14859 9.40177 8.30016 9.40177 7.25163C9.40177 6.2031 8.54533 5.35466 7.5048 5.35466Z" fill="#333333" fill-opacity="0.9"/>
<path d="M7.50513 17.2168C6.32053 17.2168 5.12792 16.7685 4.19945 15.8801C1.83825 13.6069 -0.771079 9.98108 0.213421 5.66688C1.10187 1.75289 4.51961 0 7.50513 0C7.50513 0 7.50513 0 7.51313 0C10.4987 0 13.9164 1.75289 14.8048 5.67489C15.7813 9.98908 13.172 13.6069 10.8108 15.8801C9.88234 16.7685 8.68973 17.2168 7.50513 17.2168ZM7.50513 1.20061C5.17595 1.20061 2.18242 2.44124 1.39002 5.93102C0.52558 9.70093 2.89478 12.9506 5.03988 15.0076C6.42458 16.3443 8.59368 16.3443 9.97839 15.0076C12.1155 12.9506 14.4847 9.70093 13.6362 5.93102C12.8358 2.44124 9.83432 1.20061 7.50513 1.20061Z" fill="#333333" fill-opacity="0.9"/>
</svg>
