<svg width="18" height="16" viewBox="0 0 18 16" fill="none" xmlns="http://www.w3.org/2000/svg">
<path d="M7.85233 12.6706C7.32272 13.192 7.53405 14.0839 8.27227 14.1697C8.51278 14.1976 8.75555 14.2124 9 14.2124C11.0681 14.2124 13.0166 13.1513 14.4865 12.0711C15.9824 10.9718 17.1355 9.73821 17.6356 9.17013C18.1215 8.61826 18.1215 7.80654 17.6356 7.25467C17.3467 6.92656 16.8401 6.37644 16.1753 5.7584C15.796 5.40575 15.2072 5.43021 14.8381 5.79356C14.4172 6.20793 14.4448 6.89567 14.8747 7.30074C15.2359 7.64114 15.5428 7.95629 15.7812 8.2124C15.2412 8.79243 14.3505 9.67525 13.2712 10.4684C11.9135 11.4662 10.4045 12.2124 9 12.2124C8.95419 12.2124 8.90828 12.2116 8.86226 12.21C8.54876 12.1993 8.23512 12.2938 8.01159 12.5138L7.85233 12.6706Z" fill="#333333" fill-opacity="0.9"/>
<path d="M12.3991 5.36621C11.285 4.67837 10.1099 4.2124 9 4.2124C7.59547 4.2124 6.08651 4.95863 4.72884 5.95638C3.64954 6.74955 2.75879 7.63237 2.21879 8.2124C2.75879 8.79243 3.64954 9.67525 4.72884 10.4684C5.21809 10.828 5.72698 11.1549 6.24355 11.4259L4.7533 12.893C4.31179 12.6326 3.89641 12.3525 3.51351 12.0711C2.01758 10.9718 0.864517 9.73821 0.36439 9.17013C-0.121463 8.61826 -0.121463 7.80654 0.36439 7.25467C0.864517 6.68659 2.01758 5.45305 3.51351 4.3537C4.98339 3.27349 6.93189 2.2124 9 2.2124C10.7895 2.2124 12.4895 3.00689 13.8674 3.92078L12.3991 5.36621Z" fill="#333333" fill-opacity="0.9"/>
<path d="M1.96582 14.6475L15.6134 0.99993" stroke="#333333" stroke-opacity="0.9" stroke-width="2" stroke-linecap="round"/>
<circle cx="9" cy="8.2124" r="2" fill="#333333" fill-opacity="0.9"/>
</svg>
