<svg width="16" height="16" viewBox="0 0 16 16" fill="none" xmlns="http://www.w3.org/2000/svg">
<path fill-rule="evenodd" clip-rule="evenodd" d="M11.2919 4.36563C10.4492 3.57786 9.32469 3.14869 8.16117 3.16633C6.03204 3.16633 4.22379 4.57432 3.57904 6.47025C3.23718 7.46379 3.23718 8.53967 3.57904 9.5332H3.58203C4.22977 11.4262 6.03503 12.8342 8.16417 12.8342C9.26322 12.8342 10.2068 12.5587 10.9381 12.0719V12.07C11.7987 11.5115 12.3865 10.6326 12.5694 9.63904H8.16118V6.55849H15.8591C15.955 7.09347 16 7.64021 16 8.18401C16 10.6172 15.1129 12.6743 13.5694 14.0676L13.571 14.0688C12.2185 15.2916 10.3623 16 8.16117 16C5.07543 16 2.25357 14.2951 0.868138 11.5938C-0.289382 9.33332 -0.289379 6.67018 0.868146 4.40974C2.25358 1.70544 5.07542 0.000539092 8.16117 0.000539092C10.1883 -0.0229765 12.1465 0.723645 13.6219 2.08167L11.2919 4.36563Z" fill="#333333"/>
</svg>
