<svg width="16" height="16" viewBox="0 0 16 16" fill="none" xmlns="http://www.w3.org/2000/svg">
<path d="M8 16C12.4183 16 16 12.4183 16 8C16 3.58172 12.4183 0 8 0C3.58172 0 0 3.58172 0 8C0 12.4183 3.58172 16 8 16Z" fill="black"/>
<path fill-rule="evenodd" clip-rule="evenodd" d="M3.50901 8.32293C5.85172 7.50185 7.41389 6.96054 8.19552 6.69901C10.4273 5.95228 10.891 5.82257 11.1932 5.81828C11.2597 5.81734 11.4084 5.83059 11.5046 5.89344C11.5859 5.94651 11.6083 6.0182 11.619 6.06851C11.6297 6.11883 11.643 6.23345 11.6325 6.32301C11.5115 7.34522 10.9882 9.82586 10.722 10.9708C10.6093 11.4552 10.3875 11.6176 10.1728 11.6335C9.70612 11.6681 9.35175 11.3854 8.89975 11.1471C8.19246 10.7741 7.79289 10.5419 7.10635 10.178C6.31293 9.75739 6.82727 9.52622 7.27944 9.14842C7.39777 9.04954 9.45395 7.54503 9.49375 7.40855C9.49873 7.39148 9.50335 7.32785 9.45636 7.29425C9.40937 7.26065 9.34002 7.27214 9.28997 7.28128C9.21903 7.29423 8.08913 7.89501 5.90027 9.08361C5.57955 9.26077 5.28906 9.34709 5.02878 9.34257C4.74185 9.33758 4.18991 9.21206 3.77959 9.10477C3.27633 8.97316 2.87634 8.90359 2.91117 8.68009C2.92931 8.56368 3.12859 8.44462 3.50901 8.32293Z" fill="white"/>
</svg>
