<svg width="14" height="14" viewBox="0 0 14 14" fill="none" xmlns="http://www.w3.org/2000/svg">
<path d="M7.30622 3.67145L10.5071 6.8723L11.2142 6.16519L8.01332 2.96435L7.30622 3.67145ZM13.1325 4.49945L5.85684 11.7751C5.79561 11.8363 5.71952 11.8806 5.63603 11.9036L1.69809 12.988C1.32404 13.091 0.98029 12.7472 1.08329 12.3732L2.16765 8.43523C2.19064 8.35174 2.23492 8.27565 2.29616 8.21442L9.57181 0.938765C9.59018 0.920398 9.59647 0.916575 9.59553 0.917186C9.71277 0.840954 10.0995 0.619081 10.6262 0.594341C11.13 0.570677 11.82 0.7236 12.5838 1.48745C13.3477 2.2513 13.5006 2.94124 13.4769 3.44504C13.4522 3.97172 13.2303 4.35849 13.1541 4.47573C13.1547 4.47479 13.1509 4.48108 13.1325 4.49945Z" stroke="#222222"/>
</svg>
